<svg xmlns="http://www.w3.org/2000/svg" xmlns:xlink="http://www.w3.org/1999/xlink" width="500" zoomAndPan="magnify" viewBox="0 0 375 374.999991" height="500" preserveAspectRatio="xMidYMid meet" version="1.0"><defs><g/><clipPath id="3aa0306b9c"><path d="M 33.507812 200.605469 L 350.742188 200.605469 L 350.742188 237.679688 L 33.507812 237.679688 Z M 33.507812 200.605469 " clip-rule="nonzero"/></clipPath></defs><g fill="#3b3937" fill-opacity="1"><g transform="translate(176.410085, 273.355588)"><g><path d="M 56.359375 0 L 14.71875 -118.53125 C 13.382812 -122.164062 11.75 -124.648438 9.8125 -125.984375 C 7.875 -127.316406 5.332031 -127.984375 2.1875 -127.984375 L 0 -127.984375 L 0 -129.796875 L 52.71875 -129.796875 L 52.71875 -127.984375 L 46.546875 -127.984375 C 43.265625 -127.984375 40.742188 -127.5 38.984375 -126.53125 C 37.234375 -125.5625 36.359375 -123.804688 36.359375 -121.265625 C 36.359375 -119.078125 36.960938 -116.285156 38.171875 -112.890625 L 60.359375 -48.359375 C 64.597656 -36.234375 67.929688 -25.382812 70.359375 -15.8125 C 71.691406 -20.300781 73.207031 -25.269531 74.90625 -30.71875 C 76.601562 -36.175781 78.238281 -41.328125 79.8125 -46.171875 L 100.71875 -111.625 C 102.050781 -115.382812 102.71875 -118.351562 102.71875 -120.53125 C 102.71875 -123.320312 101.773438 -125.257812 99.890625 -126.34375 C 98.015625 -127.4375 95.015625 -127.984375 90.890625 -127.984375 L 79.8125 -127.984375 L 79.8125 -129.796875 L 123.796875 -129.796875 L 123.796875 -127.984375 L 117.625 -127.984375 C 114.101562 -127.984375 111.3125 -126.984375 109.25 -124.984375 C 107.195312 -122.984375 105.382812 -119.378906 103.8125 -114.171875 L 66.90625 0 Z M 56.359375 0 "/></g></g></g><g fill="#ffbd59" fill-opacity="1"><g transform="translate(52.32599, 222.775562)"><g><path d="M 6.546875 0 L 6.546875 -1.8125 L 10.359375 -1.8125 C 14.597656 -1.8125 17.867188 -2.78125 20.171875 -4.71875 C 22.484375 -6.664062 23.640625 -9.941406 23.640625 -14.546875 L 23.640625 -115.796875 C 23.640625 -120.160156 22.484375 -123.28125 20.171875 -125.15625 C 17.867188 -127.039062 14.597656 -127.984375 10.359375 -127.984375 L 6.546875 -127.984375 L 6.546875 -129.796875 L 62.171875 -129.796875 L 62.171875 -127.984375 L 58.359375 -127.984375 C 53.992188 -127.984375 50.660156 -127.015625 48.359375 -125.078125 C 46.054688 -123.140625 44.90625 -119.867188 44.90625 -115.265625 L 44.90625 -68.71875 L 100.53125 -68.71875 L 100.53125 -115.265625 C 100.53125 -119.867188 99.410156 -123.140625 97.171875 -125.078125 C 94.929688 -127.015625 91.628906 -127.984375 87.265625 -127.984375 L 83.4375 -127.984375 L 83.4375 -129.796875 L 139.078125 -129.796875 L 139.078125 -127.984375 L 135.25 -127.984375 C 131.007812 -127.984375 127.707031 -127.039062 125.34375 -125.15625 C 122.976562 -123.28125 121.796875 -120.160156 121.796875 -115.796875 L 121.796875 -14.546875 C 121.796875 -9.941406 122.976562 -6.664062 125.34375 -4.71875 C 127.707031 -2.78125 131.007812 -1.8125 135.25 -1.8125 L 139.078125 -1.8125 L 139.078125 0 L 83.4375 0 L 83.4375 -1.8125 L 87.265625 -1.8125 C 91.628906 -1.8125 94.929688 -2.78125 97.171875 -4.71875 C 99.410156 -6.664062 100.53125 -9.941406 100.53125 -14.546875 L 100.53125 -66.90625 L 44.90625 -66.90625 L 44.90625 -14.546875 C 44.90625 -9.941406 46.054688 -6.664062 48.359375 -4.71875 C 50.660156 -2.78125 53.992188 -1.8125 58.359375 -1.8125 L 62.171875 -1.8125 L 62.171875 0 Z M 6.546875 0 "/></g></g></g><g clip-path="url(#3aa0306b9c)"><path fill="#f4f4f4" d="M 33.507812 200.605469 L 350.5 200.605469 L 350.5 237.519531 L 33.507812 237.519531 Z M 33.507812 200.605469 " fill-opacity="1" fill-rule="nonzero"/></g><g fill="#967f71" fill-opacity="1"><g transform="translate(134.383069, 228.624491)"><g><path d="M 7.140625 -2.734375 L 2.4375 -2.734375 L 1.640625 0 L 0.234375 0 L 3.5625 -10.96875 L 6.03125 -10.96875 L 9.359375 0 L 7.953125 0 Z M 4.703125 -10.40625 L 2.8125 -3.953125 L 6.78125 -3.953125 L 4.890625 -10.40625 Z M 4.703125 -10.40625 "/></g></g></g><g fill="#967f71" fill-opacity="1"><g transform="translate(143.971902, 228.624491)"><g><path d="M 2.578125 0 L 1.359375 0 L 1.359375 -7.765625 L 2.578125 -7.765625 L 2.578125 -6.453125 L 2.78125 -6.453125 C 3.257812 -7.484375 4.09375 -8 5.28125 -8 C 6.175781 -8 6.890625 -7.71875 7.421875 -7.15625 C 7.960938 -6.59375 8.234375 -5.753906 8.234375 -4.640625 L 8.234375 0 L 7 0 L 7 -4.390625 C 7 -5.203125 6.816406 -5.8125 6.453125 -6.21875 C 6.085938 -6.625 5.59375 -6.828125 4.96875 -6.828125 C 4.226562 -6.828125 3.644531 -6.570312 3.21875 -6.0625 C 2.789062 -5.5625 2.578125 -4.890625 2.578125 -4.046875 Z M 2.578125 0 "/></g></g></g><g fill="#967f71" fill-opacity="1"><g transform="translate(153.560734, 228.624491)"><g><path d="M 7.375 -1.1875 L 7.1875 -1.1875 C 7.0625 -0.945312 6.898438 -0.738281 6.703125 -0.5625 C 6.515625 -0.382812 6.304688 -0.238281 6.078125 -0.125 C 5.859375 -0.0078125 5.625 0.0703125 5.375 0.125 C 5.125 0.1875 4.882812 0.21875 4.65625 0.21875 C 4.132812 0.21875 3.644531 0.128906 3.1875 -0.046875 C 2.738281 -0.222656 2.34375 -0.476562 2 -0.8125 C 1.664062 -1.144531 1.398438 -1.5625 1.203125 -2.0625 C 1.015625 -2.5625 0.921875 -3.128906 0.921875 -3.765625 L 0.921875 -4.015625 C 0.921875 -4.640625 1.019531 -5.195312 1.21875 -5.6875 C 1.414062 -6.1875 1.679688 -6.601562 2.015625 -6.9375 C 2.347656 -7.28125 2.738281 -7.539062 3.1875 -7.71875 C 3.644531 -7.90625 4.125 -8 4.625 -8 C 5.15625 -8 5.648438 -7.878906 6.109375 -7.640625 C 6.578125 -7.398438 6.9375 -7.035156 7.1875 -6.546875 L 7.375 -6.546875 L 7.375 -10.96875 L 8.609375 -10.96875 L 8.609375 0 L 7.375 0 Z M 4.78125 -0.9375 C 5.144531 -0.9375 5.484375 -1.003906 5.796875 -1.140625 C 6.109375 -1.273438 6.378906 -1.46875 6.609375 -1.71875 C 6.847656 -1.96875 7.035156 -2.269531 7.171875 -2.625 C 7.304688 -2.976562 7.375 -3.367188 7.375 -3.796875 L 7.375 -3.984375 C 7.375 -4.398438 7.304688 -4.78125 7.171875 -5.125 C 7.035156 -5.476562 6.847656 -5.78125 6.609375 -6.03125 C 6.378906 -6.28125 6.101562 -6.472656 5.78125 -6.609375 C 5.46875 -6.753906 5.132812 -6.828125 4.78125 -6.828125 C 4.414062 -6.828125 4.070312 -6.757812 3.75 -6.625 C 3.4375 -6.488281 3.160156 -6.296875 2.921875 -6.046875 C 2.679688 -5.796875 2.492188 -5.5 2.359375 -5.15625 C 2.234375 -4.8125 2.171875 -4.429688 2.171875 -4.015625 L 2.171875 -3.765625 C 2.171875 -3.328125 2.234375 -2.929688 2.359375 -2.578125 C 2.492188 -2.234375 2.679688 -1.9375 2.921875 -1.6875 C 3.160156 -1.445312 3.4375 -1.257812 3.75 -1.125 C 4.0625 -1 4.40625 -0.9375 4.78125 -0.9375 Z M 4.78125 -0.9375 "/></g></g></g><g fill="#967f71" fill-opacity="1"><g transform="translate(163.149566, 228.624491)"><g><path d="M 0.921875 -7.765625 L 3.75 -7.765625 L 3.75 -6.734375 L 3.9375 -6.734375 C 4.132812 -7.160156 4.414062 -7.476562 4.78125 -7.6875 C 5.144531 -7.894531 5.5625 -8 6.03125 -8 C 6.8125 -8 7.441406 -7.738281 7.921875 -7.21875 C 8.410156 -6.707031 8.671875 -5.960938 8.703125 -4.984375 L 7.40625 -4.796875 C 7.40625 -5.515625 7.234375 -6.03125 6.890625 -6.34375 C 6.546875 -6.664062 6.125 -6.828125 5.625 -6.828125 C 5.300781 -6.828125 5.019531 -6.765625 4.78125 -6.640625 C 4.550781 -6.515625 4.359375 -6.34375 4.203125 -6.125 C 4.046875 -5.90625 3.929688 -5.648438 3.859375 -5.359375 C 3.785156 -5.066406 3.75 -4.753906 3.75 -4.421875 L 3.75 -1.125 L 5.71875 -1.125 L 5.71875 0 L 0.734375 0 L 0.734375 -1.125 L 2.515625 -1.125 L 2.515625 -6.640625 L 0.921875 -6.640625 Z M 0.921875 -7.765625 "/></g></g></g><g fill="#967f71" fill-opacity="1"><g transform="translate(172.738398, 228.624491)"><g><path d="M 2.25 -3.515625 C 2.28125 -2.734375 2.519531 -2.109375 2.96875 -1.640625 C 3.425781 -1.171875 4.054688 -0.9375 4.859375 -0.9375 C 5.222656 -0.9375 5.539062 -0.976562 5.8125 -1.0625 C 6.082031 -1.144531 6.3125 -1.257812 6.5 -1.40625 C 6.695312 -1.550781 6.851562 -1.71875 6.96875 -1.90625 C 7.09375 -2.101562 7.191406 -2.3125 7.265625 -2.53125 L 8.4375 -2.21875 C 8.21875 -1.5 7.8125 -0.910156 7.21875 -0.453125 C 6.625 -0.00390625 5.828125 0.21875 4.828125 0.21875 C 4.273438 0.21875 3.765625 0.125 3.296875 -0.0625 C 2.828125 -0.257812 2.425781 -0.535156 2.09375 -0.890625 C 1.757812 -1.242188 1.5 -1.664062 1.3125 -2.15625 C 1.125 -2.65625 1.03125 -3.203125 1.03125 -3.796875 L 1.03125 -4.171875 C 1.03125 -4.710938 1.125 -5.21875 1.3125 -5.6875 C 1.507812 -6.15625 1.78125 -6.554688 2.125 -6.890625 C 2.476562 -7.234375 2.882812 -7.503906 3.34375 -7.703125 C 3.8125 -7.898438 4.316406 -8 4.859375 -8 C 5.492188 -8 6.039062 -7.878906 6.5 -7.640625 C 6.96875 -7.398438 7.351562 -7.109375 7.65625 -6.765625 C 7.957031 -6.421875 8.175781 -6.046875 8.3125 -5.640625 C 8.457031 -5.234375 8.53125 -4.859375 8.53125 -4.515625 L 8.53125 -3.515625 Z M 4.859375 -6.828125 C 4.515625 -6.828125 4.191406 -6.769531 3.890625 -6.65625 C 3.597656 -6.550781 3.335938 -6.398438 3.109375 -6.203125 C 2.890625 -6.003906 2.707031 -5.769531 2.5625 -5.5 C 2.414062 -5.238281 2.320312 -4.953125 2.28125 -4.640625 L 7.296875 -4.640625 C 7.273438 -4.972656 7.191406 -5.273438 7.046875 -5.546875 C 6.910156 -5.816406 6.726562 -6.046875 6.5 -6.234375 C 6.28125 -6.421875 6.023438 -6.566406 5.734375 -6.671875 C 5.453125 -6.773438 5.160156 -6.828125 4.859375 -6.828125 Z M 4.859375 -6.828125 "/></g></g></g><g fill="#967f71" fill-opacity="1"><g transform="translate(182.327231, 228.624491)"><g><path d="M 2.984375 -5.765625 C 2.984375 -5.390625 3.140625 -5.101562 3.453125 -4.90625 C 3.773438 -4.707031 4.359375 -4.578125 5.203125 -4.515625 C 6.109375 -4.441406 6.800781 -4.222656 7.28125 -3.859375 C 7.757812 -3.503906 8 -2.976562 8 -2.28125 L 8 -2.1875 C 8 -1.8125 7.921875 -1.472656 7.765625 -1.171875 C 7.609375 -0.878906 7.394531 -0.628906 7.125 -0.421875 C 6.863281 -0.210938 6.539062 -0.0546875 6.15625 0.046875 C 5.78125 0.160156 5.367188 0.21875 4.921875 0.21875 C 4.316406 0.21875 3.796875 0.140625 3.359375 -0.015625 C 2.929688 -0.179688 2.570312 -0.394531 2.28125 -0.65625 C 1.988281 -0.925781 1.769531 -1.226562 1.625 -1.5625 C 1.476562 -1.90625 1.394531 -2.25 1.375 -2.59375 L 2.53125 -2.890625 C 2.59375 -2.285156 2.828125 -1.800781 3.234375 -1.4375 C 3.640625 -1.082031 4.179688 -0.90625 4.859375 -0.90625 C 5.429688 -0.90625 5.890625 -1.015625 6.234375 -1.234375 C 6.585938 -1.460938 6.765625 -1.78125 6.765625 -2.1875 C 6.765625 -2.632812 6.59375 -2.953125 6.25 -3.140625 C 5.90625 -3.328125 5.347656 -3.445312 4.578125 -3.5 C 3.679688 -3.5625 2.988281 -3.769531 2.5 -4.125 C 2.019531 -4.476562 1.78125 -4.992188 1.78125 -5.671875 L 1.78125 -5.765625 C 1.78125 -6.128906 1.859375 -6.445312 2.015625 -6.71875 C 2.171875 -7 2.382812 -7.234375 2.65625 -7.421875 C 2.925781 -7.609375 3.226562 -7.75 3.5625 -7.84375 C 3.894531 -7.945312 4.242188 -8 4.609375 -8 C 5.117188 -8 5.566406 -7.925781 5.953125 -7.78125 C 6.335938 -7.632812 6.660156 -7.445312 6.921875 -7.21875 C 7.179688 -7 7.378906 -6.742188 7.515625 -6.453125 C 7.660156 -6.160156 7.753906 -5.867188 7.796875 -5.578125 L 6.640625 -5.296875 C 6.585938 -5.796875 6.382812 -6.1875 6.03125 -6.46875 C 5.6875 -6.75 5.234375 -6.890625 4.671875 -6.890625 C 4.453125 -6.890625 4.238281 -6.863281 4.03125 -6.8125 C 3.832031 -6.769531 3.65625 -6.703125 3.5 -6.609375 C 3.34375 -6.515625 3.21875 -6.394531 3.125 -6.25 C 3.03125 -6.113281 2.984375 -5.953125 2.984375 -5.765625 Z M 2.984375 -5.765625 "/></g></g></g><g fill="#967f71" fill-opacity="1"><g transform="translate(191.916063, 228.624491)"><g/></g></g><g fill="#967f71" fill-opacity="1"><g transform="translate(201.504895, 228.624491)"><g><path d="M 0.421875 -10.96875 L 1.828125 -10.96875 L 4.703125 -0.5625 L 4.890625 -0.5625 L 7.75 -10.96875 L 9.171875 -10.96875 L 6.0625 0 L 3.53125 0 Z M 0.421875 -10.96875 "/></g></g></g><g fill="#967f71" fill-opacity="1"><g transform="translate(211.093727, 228.624491)"><g><path d="M 2.25 -3.515625 C 2.28125 -2.734375 2.519531 -2.109375 2.96875 -1.640625 C 3.425781 -1.171875 4.054688 -0.9375 4.859375 -0.9375 C 5.222656 -0.9375 5.539062 -0.976562 5.8125 -1.0625 C 6.082031 -1.144531 6.3125 -1.257812 6.5 -1.40625 C 6.695312 -1.550781 6.851562 -1.71875 6.96875 -1.90625 C 7.09375 -2.101562 7.191406 -2.3125 7.265625 -2.53125 L 8.4375 -2.21875 C 8.21875 -1.5 7.8125 -0.910156 7.21875 -0.453125 C 6.625 -0.00390625 5.828125 0.21875 4.828125 0.21875 C 4.273438 0.21875 3.765625 0.125 3.296875 -0.0625 C 2.828125 -0.257812 2.425781 -0.535156 2.09375 -0.890625 C 1.757812 -1.242188 1.5 -1.664062 1.3125 -2.15625 C 1.125 -2.65625 1.03125 -3.203125 1.03125 -3.796875 L 1.03125 -4.171875 C 1.03125 -4.710938 1.125 -5.21875 1.3125 -5.6875 C 1.507812 -6.15625 1.78125 -6.554688 2.125 -6.890625 C 2.476562 -7.234375 2.882812 -7.503906 3.34375 -7.703125 C 3.8125 -7.898438 4.316406 -8 4.859375 -8 C 5.492188 -8 6.039062 -7.878906 6.5 -7.640625 C 6.96875 -7.398438 7.351562 -7.109375 7.65625 -6.765625 C 7.957031 -6.421875 8.175781 -6.046875 8.3125 -5.640625 C 8.457031 -5.234375 8.53125 -4.859375 8.53125 -4.515625 L 8.53125 -3.515625 Z M 4.859375 -6.828125 C 4.515625 -6.828125 4.191406 -6.769531 3.890625 -6.65625 C 3.597656 -6.550781 3.335938 -6.398438 3.109375 -6.203125 C 2.890625 -6.003906 2.707031 -5.769531 2.5625 -5.5 C 2.414062 -5.238281 2.320312 -4.953125 2.28125 -4.640625 L 7.296875 -4.640625 C 7.273438 -4.972656 7.191406 -5.273438 7.046875 -5.546875 C 6.910156 -5.816406 6.726562 -6.046875 6.5 -6.234375 C 6.28125 -6.421875 6.023438 -6.566406 5.734375 -6.671875 C 5.453125 -6.773438 5.160156 -6.828125 4.859375 -6.828125 Z M 4.859375 -6.828125 "/></g></g></g><g fill="#967f71" fill-opacity="1"><g transform="translate(220.68256, 228.624491)"><g><path d="M 7.265625 -1.1875 L 7.078125 -1.1875 C 6.828125 -0.71875 6.484375 -0.363281 6.046875 -0.125 C 5.617188 0.101562 5.148438 0.21875 4.640625 0.21875 C 4.117188 0.21875 3.625 0.128906 3.15625 -0.046875 C 2.695312 -0.222656 2.289062 -0.476562 1.9375 -0.8125 C 1.59375 -1.144531 1.316406 -1.5625 1.109375 -2.0625 C 0.910156 -2.5625 0.8125 -3.128906 0.8125 -3.765625 L 0.8125 -4.015625 C 0.8125 -4.640625 0.914062 -5.195312 1.125 -5.6875 C 1.332031 -6.1875 1.609375 -6.601562 1.953125 -6.9375 C 2.296875 -7.28125 2.695312 -7.539062 3.15625 -7.71875 C 3.625 -7.90625 4.109375 -8 4.609375 -8 C 5.171875 -8 5.660156 -7.875 6.078125 -7.625 C 6.503906 -7.375 6.835938 -7.015625 7.078125 -6.546875 L 7.265625 -6.546875 L 7.265625 -7.765625 L 8.5 -7.765625 L 8.5 1.90625 C 8.5 2.257812 8.382812 2.550781 8.15625 2.78125 C 7.925781 3.019531 7.632812 3.140625 7.28125 3.140625 L 2.21875 3.140625 L 2.21875 2 L 6.84375 2 C 7.125 2 7.265625 1.84375 7.265625 1.53125 Z M 4.671875 -0.9375 C 5.035156 -0.9375 5.375 -1.003906 5.6875 -1.140625 C 6 -1.273438 6.269531 -1.46875 6.5 -1.71875 C 6.738281 -1.96875 6.925781 -2.269531 7.0625 -2.625 C 7.195312 -2.976562 7.265625 -3.367188 7.265625 -3.796875 L 7.265625 -3.984375 C 7.265625 -4.398438 7.195312 -4.78125 7.0625 -5.125 C 6.925781 -5.476562 6.738281 -5.78125 6.5 -6.03125 C 6.269531 -6.28125 5.992188 -6.472656 5.671875 -6.609375 C 5.359375 -6.753906 5.023438 -6.828125 4.671875 -6.828125 C 4.304688 -6.828125 3.960938 -6.757812 3.640625 -6.625 C 3.328125 -6.488281 3.050781 -6.296875 2.8125 -6.046875 C 2.570312 -5.796875 2.382812 -5.5 2.25 -5.15625 C 2.125 -4.8125 2.0625 -4.429688 2.0625 -4.015625 L 2.0625 -3.765625 C 2.0625 -3.328125 2.125 -2.929688 2.25 -2.578125 C 2.382812 -2.234375 2.570312 -1.9375 2.8125 -1.6875 C 3.050781 -1.445312 3.328125 -1.257812 3.640625 -1.125 C 3.953125 -1 4.296875 -0.9375 4.671875 -0.9375 Z M 4.671875 -0.9375 "/></g></g></g><g fill="#967f71" fill-opacity="1"><g transform="translate(230.271392, 228.624491)"><g><path d="M 7 -1.3125 L 6.8125 -1.3125 C 6.5625 -0.789062 6.210938 -0.40625 5.765625 -0.15625 C 5.328125 0.09375 4.863281 0.21875 4.375 0.21875 C 3.863281 0.21875 3.382812 0.132812 2.9375 -0.03125 C 2.5 -0.207031 2.113281 -0.460938 1.78125 -0.796875 C 1.457031 -1.140625 1.203125 -1.554688 1.015625 -2.046875 C 0.828125 -2.546875 0.734375 -3.117188 0.734375 -3.765625 L 0.734375 -4.015625 C 0.734375 -4.648438 0.828125 -5.210938 1.015625 -5.703125 C 1.203125 -6.191406 1.457031 -6.601562 1.78125 -6.9375 C 2.113281 -7.28125 2.5 -7.539062 2.9375 -7.71875 C 3.382812 -7.90625 3.851562 -8 4.34375 -8 C 4.875 -8 5.351562 -7.878906 5.78125 -7.640625 C 6.21875 -7.398438 6.5625 -7.035156 6.8125 -6.546875 L 7 -6.546875 L 7 -7.765625 L 8.234375 -7.765625 L 8.234375 -1.59375 C 8.234375 -1.28125 8.375 -1.125 8.65625 -1.125 L 9.046875 -1.125 L 9.046875 0 L 8.21875 0 C 7.851562 0 7.554688 -0.113281 7.328125 -0.34375 C 7.109375 -0.570312 7 -0.863281 7 -1.21875 Z M 4.5 -0.9375 C 4.863281 -0.9375 5.195312 -1.003906 5.5 -1.140625 C 5.8125 -1.273438 6.078125 -1.46875 6.296875 -1.71875 C 6.515625 -1.96875 6.6875 -2.269531 6.8125 -2.625 C 6.9375 -2.976562 7 -3.367188 7 -3.796875 L 7 -3.984375 C 7 -4.398438 6.9375 -4.78125 6.8125 -5.125 C 6.6875 -5.476562 6.507812 -5.78125 6.28125 -6.03125 C 6.0625 -6.28125 5.796875 -6.472656 5.484375 -6.609375 C 5.179688 -6.753906 4.851562 -6.828125 4.5 -6.828125 C 4.132812 -6.828125 3.800781 -6.757812 3.5 -6.625 C 3.195312 -6.488281 2.929688 -6.296875 2.703125 -6.046875 C 2.472656 -5.804688 2.296875 -5.507812 2.171875 -5.15625 C 2.046875 -4.8125 1.984375 -4.429688 1.984375 -4.015625 L 1.984375 -3.765625 C 1.984375 -2.867188 2.21875 -2.171875 2.6875 -1.671875 C 3.15625 -1.179688 3.757812 -0.9375 4.5 -0.9375 Z M 4.5 -0.9375 "/></g></g></g></svg>